HIERARCHY
ROOT Hips
{
	OFFSET 0.00000 0.00000 0.00000
	CHANNELS 6 Xposition Yposition Zposition Zrotation Yrotation Xrotation 
	JOINT LHipJoint
	{
		OFFSET 0 0 0
		CHANNELS 3 Zrotation Yrotation Xrotation
		JOINT LeftUpLeg
		{
			OFFSET 1.57358 -1.76629 0.73362
			CHANNELS 3 Zrotation Yrotation Xrotation
			JOINT LeftLeg
			{
				OFFSET 2.40600 -6.61045 0.00000
				CHANNELS 3 Zrotation Yrotation Xrotation
				JOINT LeftFoot
				{
					OFFSET 2.66168 -7.31291 0.00000
					CHANNELS 3 Zrotation Yrotation Xrotation
					JOINT LeftToeBase
					{
						OFFSET 0.20870 -0.57341 2.12506
						CHANNELS 3 Zrotation Yrotation Xrotation
						End Site
						{
							OFFSET 0.00000 -0.00000 1.10557
						}
					}
				}
			}
		}
	}
	JOINT RHipJoint
	{
		OFFSET 0 0 0
		CHANNELS 3 Zrotation Yrotation Xrotation
		JOINT RightUpLeg
		{
			OFFSET -1.49299 -1.76629 0.73362
			CHANNELS 3 Zrotation Yrotation Xrotation
			JOINT RightLeg
			{
				OFFSET -2.43663 -6.69460 0.00000
				CHANNELS 3 Zrotation Yrotation Xrotation
				JOINT RightFoot
				{
					OFFSET -2.62959 -7.22474 0.00000
					CHANNELS 3 Zrotation Yrotation Xrotation
					JOINT RightToeBase
					{
						OFFSET -0.25784 -0.70841 2.21862
						CHANNELS 3 Zrotation Yrotation Xrotation
						End Site
						{
							OFFSET -0.00000 -0.00000 1.16452
						}
					}
				}
			}
		}
	}
	JOINT LowerBack
	{
		OFFSET 0 0 0
		CHANNELS 3 Zrotation Yrotation Xrotation
		JOINT Spine
		{
			OFFSET -0.00034 2.12399 -0.25450
			CHANNELS 3 Zrotation Yrotation Xrotation
			JOINT Spine1
			{
				OFFSET 0.05594 2.14379 -0.03318
				CHANNELS 3 Zrotation Yrotation Xrotation
				JOINT Neck
				{
					OFFSET 0 0 0
					CHANNELS 3 Zrotation Yrotation Xrotation
					JOINT Neck1
					{
						OFFSET -0.09835 1.62725 0.24211
						CHANNELS 3 Zrotation Yrotation Xrotation
						JOINT Head
						{
							OFFSET 0.10849 1.66041 -0.22648
							CHANNELS 3 Zrotation Yrotation Xrotation
							End Site
							{
								OFFSET 0.04385 1.68267 -0.10541
							}
						}
					}
				}
				JOINT LeftShoulder
				{
					OFFSET 0 0 0
					CHANNELS 3 Zrotation Yrotation Xrotation
					JOINT LeftArm
					{
						OFFSET 3.29108 0.79398 -0.68179
						CHANNELS 3 Zrotation Yrotation Xrotation
						JOINT LeftForeArm
						{
							OFFSET 5.15310 -0.00000 -0.00000
							CHANNELS 3 Zrotation Yrotation Xrotation
							JOINT LeftHand
							{
								OFFSET 3.75138 -0.00000 -0.00000
								CHANNELS 3 Zrotation Yrotation Xrotation
								JOINT LeftFingerBase
								{
									OFFSET 0 0 0
									CHANNELS 3 Zrotation Yrotation Xrotation
									JOINT LeftHandIndex1
									{
										OFFSET 0.52917 -0.00000 0.00000
										CHANNELS 3 Zrotation Yrotation Xrotation
										End Site
										{
											OFFSET 0.42663 -0.00000 0.00000
										}
									}
								}
								JOINT LThumb
								{
									OFFSET 0 0 0
									CHANNELS 3 Zrotation Yrotation Xrotation
									End Site
									{
										OFFSET 0.43315 -0.00000 0.43315
									}
								}
							}
						}
					}
				}
				JOINT RightShoulder
				{
					OFFSET 0 0 0
					CHANNELS 3 Zrotation Yrotation Xrotation
					JOINT RightArm
					{
						OFFSET -3.07414 1.06285 -0.44338
						CHANNELS 3 Zrotation Yrotation Xrotation
						JOINT RightForeArm
						{
							OFFSET -5.29613 -0.00000 0.00000
							CHANNELS 3 Zrotation Yrotation Xrotation
							JOINT RightHand
							{
								OFFSET -3.76144 -0.00000 -0.00000
								CHANNELS 3 Zrotation Yrotation Xrotation
								JOINT RightFingerBase
								{
									OFFSET 0 0 0
									CHANNELS 3 Zrotation Yrotation Xrotation
									JOINT RightHandIndex1
									{
										OFFSET -0.74732 -0.00000 0.00000
										CHANNELS 3 Zrotation Yrotation Xrotation
										End Site
										{
											OFFSET -0.60251 -0.00000 0.00000
										}
									}
								}
								JOINT RThumb
								{
									OFFSET 0 0 0
									CHANNELS 3 Zrotation Yrotation Xrotation
									End Site
									{
										OFFSET -0.61171 -0.00000 0.61171
									}
								}
							}
						}
					}
				}
			}
		}
	}
}
MOTION
Frames: 12
Frame Time: 0.0689655
0.00 0.00 0.00 0 0 0 0 0 0 -21 0 0 0 0 0 0 0 0 0 0 0 0 0 0 21 0 0 0 0 0 0 0 0 0 0 0 0 0 0 0 0 0 0 0 0 0 0 -16 0 0 21 0 0 11 0 0 0 -8 0 0 0 0 0 0 0 0 0 0 0 0 0 0 0 0 0 0 0 0 8 0 0 0 0 0 0 0 0 0 0 0 0 0 0 0 0 0
0.00 0.00 0.00 4.3959 -2.1592 -6.7297 0.0000 0.0000 0.0000 -24.3760 -4.9004 -20.6588 7.3209 15.5962 50.0777 1.0809 -2.7111 -18.9325 0.0580 -1.5541 -4.2748 0.0000 0.0000 0.0000 12.4578 8.7772 -19.5409 -21.9808 -19.9057 95.8001 0.4831 -12.2182 -5.1009 -0.6869 -5.2986 14.7621 -4.8749 1.1410 12.6010 0.9406 0.9069 2.0970 3.5939 0.5338 -4.9494 -9.2232 -3.2416 -15.3152 7.3143 -3.6022 14.5591 3.5244 -1.5838 7.2863 -0.0000 -0.0000 0.0000 -89.0367 19.5152 40.9508 107.8141 -58.7663 -75.3636 -0.0000 0.0000 -32.4258 18.3572 11.2116 3.6915 -7.1250 0.0000 -0.0000 -7.8281 41.6476 0.6518 -0.0000 -0.0000 0.0000 90.5225 -19.0019 41.1505 -126.8173 54.2012 -91.2638 0.0000 -0.0000 -6.8733 -18.8129 28.6122 -9.2658 7.1250 -0.0000 -0.0000 6.8921 -0.2163 6.9164
0.00 0.00 0.00 5.4386 -6.6720 -5.3271 0.0000 0.0000 0.0000 -26.9070 1.7909 -8.5090 6.5251 14.9186 47.0546 1.5743 1.0746 -24.1302 0.5737 -4.8506 -13.4830 0.0000 0.0000 0.0000 9.3176 14.3599 -36.0652 -17.7516 -19.8784 83.4133 0.1048 -8.5062 -9.7968 -0.0001 0.0690 -0.1894 -6.4908 1.0912 11.4253 1.3566 0.7063 1.3332 4.9908 0.4914 -5.1091 -9.0023 -2.2394 -17.6767 6.2265 -1.9285 16.3364 3.3373 -0.8524 8.1225 -0.0000 -0.0000 0.0000 -92.5868 9.6767 36.9104 119.5614 -56.4257 -85.2937 -0.0000 0.0000 -31.4100 16.8702 7.0876 2.1429 -7.1250 0.0000 -0.0000 -8.4224 37.2640 1.6172 -0.0000 -0.0000 0.0000 88.3455 -28.2699 41.0714 -122.8555 55.4997 -88.0238 0.0000 -0.0000 -19.0427 -16.6656 24.9311 -7.1921 7.1250 -0.0000 -0.0000 7.8420 -4.3027 7.3016
0.00 0.00 0.00 5.8931 -6.1644 -4.2209 0.0000 0.0000 0.0000 -27.6535 3.6222 -0.3526 5.4175 13.8391 42.5965 0.8111 1.0000 -17.4054 2.1035 -9.0784 -26.0410 0.0000 0.0000 0.0000 9.3001 14.5304 -38.7029 -11.5580 -18.1975 64.5807 0.1234 -8.4331 -9.1504 -0.0452 1.3728 -3.7753 -7.7248 -0.1764 10.0197 1.9596 -1.0029 0.8359 6.5792 -0.3281 -4.5851 -8.2307 -1.1622 -18.5357 4.7282 -0.2793 16.2495 2.9019 -0.1638 8.1059 -0.0000 -0.0000 0.0000 -93.6971 7.1868 34.7014 131.1989 -52.5004 -94.7802 -0.0000 0.0000 -37.1375 16.6166 7.4120 2.2047 -7.1250 0.0000 -0.0000 -8.6849 37.5823 1.6002 -0.0000 -0.0000 0.0000 84.6720 -32.7860 43.7428 -128.3215 53.6504 -92.4796 0.0000 -0.0000 -20.0743 -14.5332 26.2215 -6.5343 7.1250 -0.0000 -0.0000 9.2266 -3.3124 8.7946
0.00 0.00 0.00 5.1225 -3.5425 -4.2146 0.0000 0.0000 0.0000 -26.3635 3.6169 7.2919 4.2794 12.5232 37.6088 0.1108 0.4189 -6.4539 1.7823 -8.3970 -23.9265 0.0000 0.0000 0.0000 10.7923 11.6640 -36.1338 -6.4214 -14.8246 46.6503 0.2725 -9.3466 -1.7259 -0.0544 1.5054 -4.1406 -6.3115 -2.1177 8.4818 2.2754 -3.3207 0.9337 6.2999 -1.5624 -3.2858 -7.9969 -0.5752 -18.8960 4.5289 0.5233 16.8263 2.9058 0.2034 8.3068 0.0000 -0.0000 0.0000 -92.6171 6.5254 34.2758 137.8243 -49.3074 -99.9263 -0.0000 0.0000 -38.8546 16.3206 6.5699 1.9188 -7.1250 0.0000 -0.0000 -8.8064 36.6980 1.8155 0.0000 -0.0000 0.0000 82.4376 -35.3306 45.1891 -131.4090 52.4112 -94.9467 0.0000 -0.0000 -18.1067 -14.8219 27.6620 -7.0038 7.1250 -0.0000 -0.0000 9.1581 -1.8282 8.9778
0.00 0.00 0.00 4.8959 -3.4151 -4.1529 0.0000 0.0000 0.0000 -25.3597 4.2776 14.2351 3.0367 10.7542 31.4553 0.1703 2.2098 7.3424 1.6221 -8.0301 -22.8056 0.0000 0.0000 0.0000 11.9768 10.9332 -32.1420 -2.5785 -9.9792 28.9095 0.0494 -14.8345 9.8523 -0.1040 2.0797 -5.7259 -5.7088 -2.8728 7.1669 2.2702 -4.2109 0.3901 5.9652 -2.0103 -3.0265 -7.7734 -0.3219 -19.2859 4.6394 0.7955 18.4223 2.9763 0.3331 8.8994 -0.0000 0.0000 0.0000 -89.7486 7.9644 35.2285 142.8231 -46.3054 -103.6322 -0.0000 0.0000 -39.0676 13.6535 5.5672 1.3500 -7.1250 0.0000 -0.0000 -10.8626 35.5313 2.5652 -0.0000 0.0000 0.0000 81.6293 -38.4247 45.2709 -134.5112 51.0057 -97.3820 0.0000 -0.0000 -17.7761 -13.4795 27.1742 -6.2473 7.1250 -0.0000 -0.0000 9.9203 -2.5094 9.6237
0.00 0.00 0.00 5.2360 -2.4001 -3.2500 0.0000 0.0000 0.0000 -26.8313 0.3489 19.7637 2.4793 9.8002 28.3322 0.9681 -2.4202 19.6078 0.6648 -5.2145 -14.5213 0.0000 0.0000 0.0000 13.4738 6.6632 -27.5750 -0.3118 -3.5896 9.9247 -0.6908 -14.5563 16.8187 -0.0769 1.7891 -4.9233 -5.1157 -3.3875 4.9450 2.1854 -4.7673 -0.9462 5.4771 -2.2609 -3.1478 -8.0993 -0.6988 -18.7661 4.3682 0.3669 19.9710 2.9069 0.0433 9.3751 -0.0000 0.0000 0.0000 -85.5494 10.1124 39.0464 145.9100 -44.1513 -105.8243 -0.0000 0.0000 -35.1846 12.4939 3.9642 0.8776 -7.1250 0.0000 -0.0000 -11.5598 33.8656 3.2125 -0.0000 0.0000 0.0000 81.7197 -43.0107 43.0926 -138.5454 48.9085 -100.4714 0.0000 -0.0000 -17.7084 -14.7311 26.6138 -6.7176 7.1250 -0.0000 -0.0000 9.1348 -2.8910 8.7763
0.00 0.00 0.00 7.0055 -1.4045 -4.2177 0.0000 0.0000 0.0000 -29.9686 -3.5788 18.9178 5.3342 13.7506 42.2474 0.0293 -2.8465 5.4632 0.8949 -6.0295 -16.8700 0.0000 0.0000 0.0000 12.4847 6.0138 -27.4404 -0.6465 -5.1437 14.3188 -1.3756 -16.5538 22.4488 -0.0785 -1.8076 4.9743 -5.7585 -1.9906 5.5856 1.2239 -3.0323 -1.6784 4.7871 -1.3229 -4.5203 -8.7516 -2.7006 -19.6916 4.2130 -2.1208 21.2974 2.6407 -1.1971 10.2043 -0.0000 0.0000 0.0000 -81.0563 11.0825 45.2986 143.0780 -46.1368 -103.8162 -0.0000 0.0000 -31.0508 12.7665 4.1633 0.9424 -7.1250 0.0000 -0.0000 -11.3695 34.0765 3.0985 -0.0000 0.0000 0.0000 86.9759 -45.8928 32.7477 -140.8035 47.5866 -102.1563 0.0000 -0.0000 -12.7610 -19.1365 29.4420 -9.6794 7.1250 -0.0000 -0.0000 6.7960 0.6849 6.9255
0.00 0.00 0.00 4.9215 -0.9893 -6.6295 0.0000 0.0000 0.0000 -26.3297 -3.5032 14.3593 9.3066 17.0010 57.1445 0.0066 -1.1251 2.3589 0.5609 -4.7972 -13.3311 0.0000 0.0000 0.0000 15.8211 4.5093 -25.4937 -1.8923 -8.6380 24.6694 -0.3969 -0.2998 11.8003 -0.4512 -4.3094 11.9487 -3.2604 -0.9243 7.2483 1.2540 -1.4621 -0.7334 3.3014 -0.6231 -4.7176 -8.8969 -3.8436 -20.1549 4.8157 -3.7563 20.3967 2.6250 -1.8701 10.1007 -0.0000 0.0000 0.0000 -80.9722 12.7148 46.4917 137.7407 -49.3529 -99.8629 -0.0000 0.0000 -28.0919 15.3235 4.9849 1.3639 -7.1250 0.0000 -0.0000 -9.4055 35.0214 2.3310 -0.0000 0.0000 0.0000 89.1952 -42.5854 27.1368 -136.7243 49.8952 -99.0886 0.0000 -0.0000 -11.5524 -24.6554 30.4691 -13.1023 7.1250 -0.0000 -0.0000 3.7527 2.8737 3.9444
0.00 0.00 0.00 -1.1595 -0.2310 -7.9454 0.0000 0.0000 0.0000 -16.0587 -4.8491 3.1165 14.9327 19.3729 75.0338 0.0163 1.2871 -3.2418 0.9192 -6.1086 -17.0999 0.0000 0.0000 0.0000 23.6713 7.7571 -20.5401 -4.1147 -12.3114 36.8428 0.0294 -4.2400 -4.6876 -0.1025 -2.0650 5.6852 1.8869 -0.1773 10.0869 2.7203 0.1674 -0.6779 1.7675 0.0670 -6.3859 -8.4623 -5.0693 -20.8262 5.0732 -5.6313 20.8755 2.3525 -2.6579 10.5358 0.0000 -0.0000 0.0000 -85.5920 16.1837 43.1882 124.7943 -54.8908 -89.6158 -0.0000 0.0000 -27.4792 16.1969 7.0879 2.0527 -7.1250 0.0000 -0.0000 -8.9879 37.2225 1.7371 0.0000 -0.0000 0.0000 88.1125 -33.7852 25.2597 -122.6807 55.5522 -87.8797 0.0000 -0.0000 -12.4249 -26.7231 27.6610 -13.1552 7.1250 -0.0000 -0.0000 2.1126 0.4073 2.1290
0.00 0.00 0.00 -2.7260 1.3426 -7.3863 0.0000 0.0000 0.0000 -13.1540 -8.4176 -9.0674 17.3940 19.8364 82.3607 0.0795 0.2609 -5.4269 0.6267 -5.0657 -14.0962 0.0000 0.0000 0.0000 26.3944 8.7130 -16.9604 -5.1443 -13.5445 41.4426 -0.0586 -6.9047 -11.1381 -0.0001 0.0610 -0.1677 1.6912 -0.1050 10.1257 3.6615 0.3067 -0.7577 2.8524 0.1603 -6.5044 -10.0374 -5.8061 -21.1089 6.7140 -6.5777 21.4217 3.0555 -3.0143 10.9861 -0.0000 -0.0000 0.0000 -91.7956 18.3374 36.6334 108.4060 -58.6804 -75.8695 -0.0000 0.0000 -32.1814 20.0454 9.2055 3.3406 -7.1250 0.0000 -0.0000 -6.0227 39.6985 0.7903 -0.0000 -0.0000 0.0000 84.1094 -23.2343 27.3621 -104.8186 59.1538 -72.7968 0.0000 -0.0000 -5.1603 -26.8299 28.6082 -13.6139 7.1250 -0.0000 -0.0000 2.2003 1.4328 2.2563
0.00 0.00 0.00 -4.2068 4.1747 -7.7469 0.0000 0.0000 0.0000 -13.9663 -12.3425 -28.9310 11.3550 18.1045 63.9291 0.2955 -1.1187 -9.9355 0.2576 -3.2654 -9.0185 0.0000 0.0000 0.0000 29.2978 2.7738 -7.3629 -7.3993 -15.6591 50.3689 -0.0585 -4.1601 -7.8631 -0.4784 4.4357 -12.3057 4.7602 1.7833 11.3769 2.6110 3.2023 -0.4740 -0.4666 1.4472 -6.7875 -10.4563 -7.9217 -20.3892 8.3565 -9.8707 20.3983 3.1651 -4.3595 10.9096 0.0000 -0.0000 0.0000 -87.3806 27.7433 40.8206 117.5110 -56.9375 -83.5803 -0.0000 0.0000 -34.8611 15.4641 8.0895 2.2294 -7.1250 0.0000 -0.0000 -9.7686 38.1990 1.6548 0.0000 -0.0000 0.0000 86.3531 -11.3685 27.0060 -106.2202 58.9822 -73.9991 0.0000 -0.0000 -10.8753 -24.4098 25.0532 -10.8783 7.1250 -0.0000 -0.0000 3.1294 -2.8425 2.9749
